<svg aria-hidden="true" style="position: absolute; width: 0; height: 0; overflow: hidden;" version="1.1" xmlns="http://www.w3.org/2000/svg" xmlns:xlink="http://www.w3.org/1999/xlink">
<defs>
<symbol id="fb" viewBox="0 0 32 32">
<path d="M26 0c1.653 0 3.067 0.587 4.24 1.76s1.76 2.587 1.76 4.24v20c0 1.653-0.587 3.067-1.76 4.24s-2.587 1.76-4.24 1.76h-3.916v-12.396h4.146l0.624-4.832h-4.77v-3.084c0-0.777 0.164-1.36 0.489-1.749 0.327-0.389 0.962-0.583 1.908-0.583l2.542-0.021v-4.313c-0.876-0.124-2.112-0.187-3.71-0.187-1.888 0-3.399 0.555-4.53 1.666-1.132 1.111-1.7 2.681-1.7 4.709v3.563h-4.165v4.832h4.165v12.396h-11.083c-0.026 0-0.057 0.001-0.087 0.001-1.629 0-3.101-0.674-4.151-1.759l-0.002-0.002c-1.086-1.052-1.761-2.524-1.761-4.153 0-0.031 0-0.061 0.001-0.092l-0 0.005v-20c0-1.653 0.587-3.067 1.76-4.24 1.052-1.086 2.524-1.761 4.153-1.761 0.031 0 0.061 0 0.092 0.001l-0.005-0h20z"></path>
</symbol>
<symbol id="tw" viewBox="0 0 32 32">
<path d="M26.667 10.041c-0.779 0.348-1.618 0.585-2.521 0.709 0.944-0.556 1.591-1.369 1.938-2.437-0.803 0.485-1.739 0.854-2.736 1.052l-0.055 0.009c-0.848-0.916-1.911-1.374-3.188-1.374-1.209 0-2.24 0.427-3.093 1.28-0.855 0.855-1.282 1.886-1.282 3.093 0 0.405 0.036 0.738 0.103 1.001-1.856-0.095-3.577-0.585-5.11-1.385l0.068 0.033c-1.582-0.815-2.913-1.901-3.982-3.208l-0.018-0.022c-0.402 0.693-0.604 1.431-0.604 2.208 0 1.584 0.633 2.8 1.897 3.646-0.652-0.014-1.348-0.196-2.084-0.54v0.041c0 1.042 0.347 1.968 1.042 2.78 0.693 0.814 1.548 1.316 2.562 1.511-0.316 0.097-0.68 0.158-1.056 0.167l-0.005 0c-0.181 0-0.452-0.028-0.812-0.084 0.292 0.875 0.809 1.596 1.552 2.167 0.743 0.569 1.586 0.86 2.532 0.875-1.461 1.169-3.337 1.876-5.377 1.876-0.022 0-0.044-0-0.066-0l0.003 0c-0.359 0-0.706-0.021-1.040-0.064 1.879 1.228 4.18 1.959 6.652 1.959 0.020 0 0.039-0 0.059-0h-0.003c1.556 0 3.015-0.247 4.375-0.74 1.362-0.492 2.528-1.154 3.502-1.979 0.971-0.827 1.808-1.778 2.508-2.855 1.294-1.939 2.067-4.321 2.073-6.884v-0.002c0-0.249-0.007-0.437-0.020-0.562 0.867-0.621 1.594-1.376 2.167-2.24l0.020-0.032zM32 6v20c0 1.653-0.587 3.067-1.76 4.24s-2.587 1.76-4.24 1.76h-20c-0.026 0-0.057 0.001-0.087 0.001-1.629 0-3.101-0.674-4.151-1.759l-0.002-0.002c-1.086-1.052-1.761-2.524-1.761-4.153 0-0.031 0-0.061 0.001-0.092l-0 0.005v-20c0-1.653 0.587-3.067 1.76-4.24 1.052-1.086 2.524-1.761 4.153-1.761 0.031 0 0.061 0 0.092 0.001l-0.005-0h20c1.653 0 3.067 0.587 4.24 1.76s1.76 2.587 1.76 4.24z"></path>
</symbol>
<symbol id="in" viewBox="0 0 32 32">
<path d="M21.333 16c0-0.024 0.001-0.052 0.001-0.080 0-1.448-0.599-2.755-1.562-3.689l-0.001-0.001c-0.935-0.965-2.243-1.563-3.691-1.563-0.028 0-0.056 0-0.084 0.001l0.004-0c-0.024-0-0.052-0.001-0.080-0.001-1.448 0-2.755 0.599-3.689 1.562l-0.001 0.001c-0.965 0.935-1.563 2.243-1.563 3.691 0 0.028 0 0.056 0.001 0.084l-0-0.004c0 1.472 0.521 2.729 1.563 3.771 0.935 0.965 2.243 1.563 3.691 1.563 0.028 0 0.056-0 0.084-0.001l-0.004 0c0.024 0 0.052 0.001 0.080 0.001 1.448 0 2.755-0.599 3.689-1.562l0.001-0.001c0.965-0.935 1.563-2.243 1.563-3.691 0-0.028-0-0.056-0.001-0.084l0 0.004zM24.208 16c0 2.277-0.798 4.215-2.396 5.813-1.596 1.596-3.534 2.395-5.812 2.395s-4.215-0.798-5.813-2.396c-1.596-1.596-2.395-3.534-2.395-5.812s0.798-4.215 2.395-5.813c1.6-1.596 3.538-2.395 5.813-2.395s4.215 0.798 5.813 2.395c1.596 1.598 2.395 3.536 2.395 5.813zM26.459 7.458c0 0.528-0.188 0.98-0.564 1.355-0.373 0.375-0.825 0.562-1.353 0.562s-0.98-0.187-1.355-0.562c-0.347-0.336-0.562-0.806-0.562-1.326 0-0.010 0-0.020 0-0.030l-0 0.002c0-0.528 0.187-0.978 0.562-1.353 0.373-0.375 0.827-0.564 1.355-0.564s0.978 0.188 1.353 0.564c0.375 0.373 0.564 0.825 0.564 1.353zM16 2.875l-1.593-0.011c-0.327-0.003-0.713-0.005-1.1-0.005s-0.773 0.002-1.158 0.006l0.059-0c-0.5 0.007-1.17 0.028-2.009 0.062-0.841 0.036-1.557 0.107-2.148 0.21s-1.086 0.231-1.49 0.384c-0.714 0.289-1.323 0.698-1.831 1.209l-0 0c-0.511 0.509-0.92 1.118-1.196 1.797l-0.013 0.036c-0.158 0.423-0.292 0.924-0.379 1.441l-0.007 0.049c-0.109 0.627-0.184 1.366-0.209 2.119l-0.001 0.027c-0.036 0.841-0.053 1.511-0.062 2.011-0.007 0.5-0.007 1.234 0 2.199l0.011 1.593-0.011 1.593c-0.003 0.327-0.005 0.713-0.005 1.1s0.002 0.773 0.006 1.158l-0-0.059c0.007 0.5 0.028 1.17 0.062 2.009 0.036 0.841 0.107 1.557 0.21 2.148 0.093 0.566 0.226 1.067 0.403 1.548l-0.019-0.058c0.279 0.693 0.681 1.305 1.209 1.831 0.528 0.53 1.138 0.932 1.833 1.209 0.404 0.155 0.9 0.283 1.49 0.386 0.627 0.108 1.367 0.183 2.12 0.207l0.026 0.001c0.841 0.036 1.511 0.057 2.011 0.064s1.234 0.007 2.199 0l1.593-0.011 1.593 0.011c0.965 0.007 1.7 0.007 2.199 0s1.17-0.028 2.009-0.062c0.78-0.026 1.52-0.101 2.245-0.223l-0.097 0.014c0.59-0.103 1.086-0.231 1.49-0.384 0.693-0.279 1.305-0.681 1.831-1.209 0.53-0.528 0.932-1.138 1.209-1.833 0.155-0.404 0.283-0.9 0.386-1.49 0.108-0.627 0.183-1.367 0.207-2.12l0.001-0.026c0.036-0.841 0.057-1.511 0.064-2.011s0.007-1.232 0-2.199c-0.003-0.308-0.007-0.867-0.010-1.427l-0.001-0.166 0.011-1.593c0.007-0.965 0.007-1.7 0-2.199-0.014-0.777-0.037-1.478-0.068-2.177l0.006 0.168c-0.026-0.78-0.101-1.52-0.223-2.245l0.014 0.097c-0.093-0.566-0.226-1.067-0.403-1.548l0.019 0.058c-0.289-0.714-0.698-1.323-1.209-1.831l-0-0c-0.509-0.511-1.118-0.92-1.797-1.196l-0.036-0.013c-0.422-0.158-0.924-0.292-1.441-0.379l-0.049-0.007c-0.627-0.109-1.366-0.184-2.119-0.209l-0.027-0.001c-0.841-0.036-1.511-0.053-2.011-0.062-0.327-0.003-0.713-0.005-1.1-0.005s-0.773 0.002-1.158 0.006l0.059-0-1.593 0.011zM32 16c0 3.182-0.036 5.381-0.105 6.604-0.139 2.889-0.999 5.125-2.583 6.708-1.582 1.582-3.819 2.444-6.708 2.583-1.223 0.071-3.424 0.105-6.604 0.105-3.182 0-5.381-0.036-6.604-0.105-2.889-0.139-5.125-0.999-6.708-2.583-1.582-1.582-2.444-3.819-2.583-6.708-0.071-1.223-0.105-3.424-0.105-6.604 0-3.182 0.036-5.381 0.105-6.604 0.139-2.889 0.997-5.125 2.583-6.708 1.582-1.582 3.819-2.444 6.708-2.583 1.223-0.071 3.424-0.105 6.604-0.105 3.182 0 5.381 0.036 6.604 0.105 2.889 0.139 5.125 0.999 6.708 2.583 1.582 1.582 2.444 3.819 2.583 6.708 0.071 1.223 0.105 3.424 0.105 6.604z"></path>
</symbol>
<symbol id="idk" viewBox="0 0 26 32">
<path d="M25.016 27.625l-0.105 0.107c-1.292 1.298-2.827 2.352-4.531 3.089l-0.094 0.036c-1.671 0.721-3.617 1.141-5.661 1.141s-3.99-0.419-5.756-1.177l0.095 0.036c-1.8-0.769-3.335-1.824-4.624-3.124l-0.001-0.001c-1.301-1.284-2.355-2.814-3.089-4.515l-0.036-0.093c-0.501-1.225-0.823-2.351-0.964-3.375-0.049-0.333 0.237-0.546 0.856-0.642 0.606-0.094 0.941 0.023 1 0.358 0.013 0.011 0.019 0.034 0.019 0.070 0.215 1.073 0.488 2.018 0.821 2.84 0.656 1.574 1.574 2.916 2.713 4.034l0.002 0.002c1.167 1.167 2.511 2.071 4.036 2.714 1.443 0.631 3.125 0.998 4.893 0.998 0.012 0 0.025-0 0.037-0h-0.002c1.704 0 3.345-0.331 4.93-0.998 1.561-0.675 2.893-1.59 4.017-2.714l0.107-0.107c0.119-0.119 0.267-0.154 0.446-0.107 0.143 0.036 0.339 0.166 0.589 0.393 0.429 0.44 0.531 0.785 0.305 1.035zM16.589 16.644l-1.178 1.178 1.124 1.124c0.25 0.25 0.209 0.542-0.124 0.875-0.203 0.203-0.393 0.303-0.572 0.303-0.119 0-0.232-0.058-0.339-0.179l-1.107-1.088-1.178 1.178c-0.060 0.060-0.151 0.088-0.267 0.088-0.179 0-0.363-0.094-0.555-0.284l-0.034-0.038c-0.215-0.177-0.322-0.35-0.322-0.516 0-0.085 0.047-0.184 0.143-0.305l1.178-1.16-1.178-1.178c-0.192-0.192-0.107-0.459 0.248-0.804 0.215-0.215 0.399-0.322 0.555-0.322 0.070 0 0.149 0.030 0.232 0.088l1.161 1.178 1.16-1.16c0.215-0.203 0.501-0.126 0.856 0.232 0.322 0.32 0.388 0.584 0.198 0.787zM25 17.66c0 1.406-0.273 2.763-0.821 4.072-1.097 2.517-3.069 4.482-5.522 5.545l-0.068 0.026c-1.182 0.519-2.56 0.821-4.009 0.821-0.022 0-0.044-0-0.066-0l0.003 0c-0.019 0-0.041 0-0.063 0-1.449 0-2.827-0.302-4.075-0.846l0.066 0.026c-1.297-0.559-2.405-1.317-3.34-2.25l0 0c-0.933-0.925-1.686-2.029-2.206-3.256l-0.025-0.067c-0.179-0.393-0.269-0.631-0.269-0.715h-0.019c-0.105-0.32 0.151-0.584 0.77-0.785 0.595-0.188 0.952-0.119 1.071 0.215 0.44 1.178 1.016 2.172 1.732 2.982h0.019v-6.089c0.036-1.619 0.642-2.999 1.82-4.141 1.127-1.137 2.69-1.842 4.418-1.842 0.035 0 0.070 0 0.105 0.001l-0.005-0c1.751 0 3.245 0.614 4.484 1.841 1.237 1.225 1.856 2.707 1.856 4.446 0 1.751-0.621 3.243-1.865 4.48-1.244 1.24-2.735 1.86-4.474 1.86-0.005 0-0.012 0-0.018 0-0.706 0-1.388-0.105-2.031-0.299l0.050 0.013c-0.333-0.132-0.41-0.495-0.232-1.090 0.188-0.606 0.452-0.862 0.785-0.768l0.25 0.055c0.166 0.036 0.363 0.070 0.589 0.105 0.226 0.038 0.405 0.055 0.535 0.055 0.026 0.001 0.058 0.001 0.089 0.001 1.195 0 2.276-0.488 3.054-1.277l0-0c0.794-0.769 1.286-1.845 1.286-3.035 0-0.029-0-0.058-0.001-0.086l0 0.004c0-1.203-0.429-2.221-1.286-3.053-0.845-0.845-1.886-1.267-3.125-1.267-1.274 0-2.334 0.474-3.179 1.427-0.76 0.858-1.143 1.811-1.143 2.857v7.375c1.31 0.798 2.75 1.197 4.322 1.197 1.143 0 2.244-0.218 3.304-0.651 2.109-0.873 3.753-2.511 4.614-4.56l0.021-0.056c0.433-1.048 0.651-2.138 0.651-3.27 0-2.357-0.84-4.375-2.519-6.054-1.666-1.666-3.684-2.5-6.054-2.5-2.379 0-4.405 0.834-6.071 2.5-0.631 0.631-1.090 1.148-1.374 1.555l-0.038 0.036c-0.094 0.132-0.171 0.222-0.232 0.277-0.11 0.076-0.238 0.135-0.376 0.168l-0.008 0.002c-0.079 0.021-0.169 0.032-0.262 0.032-0.153 0-0.3-0.032-0.432-0.090l0.007 0.003c-0.248-0.057-0.467-0.158-0.656-0.297l0.005 0.003c-0.184-0.137-0.277-0.296-0.277-0.474v-12.141c0-0.179 0.062-0.339 0.188-0.474 0.116-0.127 0.283-0.205 0.467-0.205 0.007 0 0.014 0 0.021 0l-0.001-0h15.661c0.358 0 0.536 0.328 0.536 0.983s-0.179 0.983-0.536 0.983h-14.481v8.625h0.019c0.476-0.501 1.082-1.001 1.82-1.5 0.557-0.397 1.19-0.761 1.859-1.061l0.071-0.028c1.299-0.546 2.673-0.821 4.124-0.821 1.442 0 2.799 0.273 4.072 0.821 2.522 1.090 4.493 3.055 5.564 5.504l0.027 0.068c0.546 1.333 0.821 2.696 0.821 4.088zM24.446 7.287c0.107 0.094 0.16 0.201 0.16 0.32 0 0.12-0.032 0.226-0.098 0.322-0.066 0.094-0.164 0.22-0.294 0.376-0.311 0.309-0.542 0.463-0.696 0.463-0.113-0-0.214-0.048-0.286-0.124l-0-0c-1.261-1.084-2.494-1.877-3.697-2.376-1.423-0.632-3.083-1-4.829-1-0.035 0-0.070 0-0.104 0l0.005-0c-1.583 0-3.144 0.292-4.68 0.873-0.32 0.12-0.589-0.1-0.804-0.659-0.105-0.299-0.154-0.525-0.141-0.68 0.036-0.19 0.132-0.311 0.284-0.358 1.547-0.678 3.328-1.016 5.34-1.016 0.006 0 0.014-0 0.022-0 2.030 0 3.963 0.42 5.715 1.179l-0.093-0.036c1.63 0.689 3.031 1.594 4.196 2.714z"></path>
</symbol>
</defs>
</svg>
